<svg version="1.1" viewBox="0.0 0.0 512.0 512.0" fill="none" stroke="none" stroke-linecap="square" stroke-miterlimit="10" xmlns:xlink="http://www.w3.org/1999/xlink" xmlns="http://www.w3.org/2000/svg"><clipPath id="g30547f70712_1_0.0"><path d="m0 0l512.0 0l0 512.0l-512.0 0l0 -512.0z" clip-rule="nonzero"/></clipPath><g clip-path="url(#g30547f70712_1_0.0)"><path fill="#000000" fill-opacity="0.0" d="m0 0l512.0 0l0 512.0l-512.0 0z" fill-rule="evenodd"/><path fill="#000000" fill-opacity="0.0" d="m37.27034 100.78846l0 0c0 -29.160057 23.6389 -52.798958 52.798958 -52.798958l211.18948 0l0 0c14.003143 0 27.43277 5.562729 37.334503 15.464455c9.901733 9.901726 15.464447 23.331345 15.464447 37.334503l0 211.18948c0 29.160065 -23.638885 52.79898 -52.79895 52.79898l-211.18948 0c-29.160057 0 -52.798958 -23.638916 -52.798958 -52.79898z" fill-rule="evenodd"/><path stroke="#e1306c" stroke-width="24.0" stroke-linejoin="round" stroke-linecap="butt" d="m37.27034 100.78846l0 0c0 -29.160057 23.6389 -52.798958 52.798958 -52.798958l211.18948 0l0 0c14.003143 0 27.43277 5.562729 37.334503 15.464455c9.901733 9.901726 15.464447 23.331345 15.464447 37.334503l0 211.18948c0 29.160065 -23.638885 52.79898 -52.79895 52.79898l-211.18948 0c-29.160057 0 -52.798958 -23.638916 -52.798958 -52.79898z" fill-rule="evenodd"/><path fill="#000000" fill-opacity="0.0" d="m157.93964 200.01942l0 0c0 -29.16005 23.6389 -52.79895 52.79895 -52.79895l211.18948 0l0 0c14.003174 0 27.43277 5.562729 37.334503 15.464447c9.901733 9.901733 15.464447 23.33136 15.464447 37.334503l0 211.1895c0 29.160065 -23.638885 52.79895 -52.79895 52.79895l-211.18948 0c-29.16005 0 -52.79895 -23.638885 -52.79895 -52.79895z" fill-rule="evenodd"/><path stroke="#fcaf45" stroke-width="24.0" stroke-linejoin="round" stroke-linecap="butt" d="m157.93964 200.01942l0 0c0 -29.16005 23.6389 -52.79895 52.79895 -52.79895l211.18948 0l0 0c14.003174 0 27.43277 5.562729 37.334503 15.464447c9.901733 9.901733 15.464447 23.33136 15.464447 37.334503l0 211.1895c0 29.160065 -23.638885 52.79895 -52.79895 52.79895l-211.18948 0c-29.16005 0 -52.79895 -23.638885 -52.79895 -52.79895z" fill-rule="evenodd"/></g></svg>